<svg width="73" height="23" viewBox="0 0 73 23" fill="none" xmlns="http://www.w3.org/2000/svg">
<g clip-path="url(#clip0_50_3231)">
<path fill-rule="evenodd" clip-rule="evenodd" d="M12.186 6.52153C12.186 9.42121 9.95045 11.8239 7.0304 12.253V16.2173V16.2173H8.90522C9.42293 16.2173 9.84261 16.6168 9.84261 17.1095C9.84261 17.6023 9.42293 18.0018 8.90522 18.0018H3.28089C2.76319 18.0018 2.34351 17.6023 2.34351 17.1095C2.34351 16.6168 2.76319 16.2173 3.28089 16.2173H5.15562V16.2173V12.253C2.23558 11.8239 0 9.4212 0 6.52153C0 3.31843 2.72794 0.721802 6.09302 0.721802C9.45811 0.721802 12.186 3.31843 12.186 6.52153Z" fill="#408560"/>
<path d="M16.186 0.961802H20.17C21.53 0.961802 22.522 1.2818 23.146 1.9218C23.77 2.5458 24.082 3.5138 24.082 4.8258V5.4978C24.082 6.3618 23.938 7.0658 23.65 7.6098C23.378 8.1538 22.954 8.5458 22.378 8.7858V8.8338C23.69 9.2818 24.346 10.4498 24.346 12.3378V13.7778C24.346 15.0738 24.002 16.0658 23.314 16.7538C22.642 17.4258 21.65 17.7618 20.338 17.7618H16.186V0.961802ZM19.858 7.8018C20.386 7.8018 20.778 7.6658 21.034 7.3938C21.306 7.1218 21.442 6.6658 21.442 6.0258V5.0898C21.442 4.4818 21.33 4.0418 21.106 3.7698C20.898 3.4978 20.562 3.3618 20.098 3.3618H18.826V7.8018H19.858ZM20.338 15.3618C20.802 15.3618 21.146 15.2418 21.37 15.0018C21.594 14.7458 21.706 14.3138 21.706 13.7058V12.2418C21.706 11.4738 21.57 10.9458 21.298 10.6578C21.042 10.3538 20.61 10.2018 20.002 10.2018H18.826V15.3618H20.338Z" fill="#408560"/>
<path d="M29.9692 18.0018C28.6892 18.0018 27.7132 17.6418 27.0412 16.9218C26.3692 16.1858 26.0332 15.1378 26.0332 13.7778V0.961802H28.6732V13.9698C28.6732 14.5458 28.7852 14.9618 29.0092 15.2178C29.2492 15.4738 29.5852 15.6018 30.0172 15.6018C30.4492 15.6018 30.7772 15.4738 31.0012 15.2178C31.2412 14.9618 31.3612 14.5458 31.3612 13.9698V0.961802H33.9052V13.7778C33.9052 15.1378 33.5692 16.1858 32.8972 16.9218C32.2252 17.6418 31.2492 18.0018 29.9692 18.0018Z" fill="#408560"/>
<path d="M39.4574 18.0018C38.1774 18.0018 37.2094 17.6418 36.5534 16.9218C35.8974 16.1858 35.5694 15.1378 35.5694 13.7778V12.8178H38.0654V13.9698C38.0654 15.0578 38.5214 15.6018 39.4334 15.6018C39.8814 15.6018 40.2174 15.4738 40.4414 15.2178C40.6814 14.9458 40.8014 14.5138 40.8014 13.9218C40.8014 13.2178 40.6414 12.6018 40.3214 12.0738C40.0014 11.5298 39.4094 10.8818 38.5454 10.1298C37.4574 9.1698 36.6974 8.3058 36.2654 7.5378C35.8334 6.7538 35.6174 5.8738 35.6174 4.8978C35.6174 3.5698 35.9534 2.5458 36.6254 1.8258C37.2974 1.0898 38.2734 0.721802 39.5534 0.721802C40.8174 0.721802 41.7694 1.0898 42.4094 1.8258C43.0654 2.5458 43.3934 3.5858 43.3934 4.9458V5.6418H40.8974V4.7778C40.8974 4.2018 40.7854 3.7858 40.5614 3.5298C40.3374 3.2578 40.0094 3.1218 39.5774 3.1218C38.6974 3.1218 38.2574 3.6578 38.2574 4.7298C38.2574 5.3378 38.4174 5.9058 38.7374 6.4338C39.0734 6.9618 39.6734 7.6018 40.5374 8.3538C41.6414 9.3138 42.4014 10.1858 42.8174 10.9698C43.2334 11.7538 43.4414 12.6738 43.4414 13.7298C43.4414 15.1058 43.0974 16.1618 42.4094 16.8978C41.7374 17.6338 40.7534 18.0018 39.4574 18.0018Z" fill="#408560"/>
<path d="M47.2591 3.3618H44.4991V0.961802H52.6591V3.3618H49.8991V17.7618H47.2591V3.3618Z" fill="#408560"/>
<path d="M57.8995 18.0018C56.6035 18.0018 55.6115 17.6338 54.9235 16.8978C54.2355 16.1618 53.8915 15.1218 53.8915 13.7778V4.9458C53.8915 3.6018 54.2355 2.5618 54.9235 1.8258C55.6115 1.0898 56.6035 0.721802 57.8995 0.721802C59.1955 0.721802 60.1875 1.0898 60.8755 1.8258C61.5635 2.5618 61.9075 3.6018 61.9075 4.9458V13.7778C61.9075 15.1218 61.5635 16.1618 60.8755 16.8978C60.1875 17.6338 59.1955 18.0018 57.8995 18.0018ZM57.8995 15.6018C58.8115 15.6018 59.2675 15.0498 59.2675 13.9458V4.7778C59.2675 3.6738 58.8115 3.1218 57.8995 3.1218C56.9875 3.1218 56.5315 3.6738 56.5315 4.7778V13.9458C56.5315 15.0498 56.9875 15.6018 57.8995 15.6018Z" fill="#408560"/>
<path d="M63.9329 0.961802H67.8209C69.1329 0.961802 70.1169 1.3138 70.7729 2.0178C71.4289 2.7218 71.7569 3.7538 71.7569 5.1138V6.7698C71.7569 8.1298 71.4289 9.1618 70.7729 9.8658C70.1169 10.5698 69.1329 10.9218 67.8209 10.9218H66.5729V17.7618H63.9329V0.961802ZM67.8209 8.5218C68.2529 8.5218 68.5729 8.4018 68.7809 8.1618C69.0049 7.9218 69.1169 7.5138 69.1169 6.9378V4.9458C69.1169 4.3698 69.0049 3.9618 68.7809 3.7218C68.5729 3.4818 68.2529 3.3618 67.8209 3.3618H66.5729V8.5218H67.8209Z" fill="#408560"/>
</g>
<defs>
<clipPath id="clip0_50_3231">
<rect width="72.6639" height="21.5564" fill="white" transform="translate(0 0.721802)"/>
</clipPath>
</defs>
</svg>
