<svg width="72" height="18" viewBox="0 0 72 18" fill="none" xmlns="http://www.w3.org/2000/svg">
<path fill-rule="evenodd" clip-rule="evenodd" d="M12.186 5.79973C12.186 8.69941 9.95045 11.1021 7.0304 11.5312V15.4955V15.4955H8.90522C9.42293 15.4955 9.84261 15.8949 9.84261 16.3877C9.84261 16.8805 9.42293 17.28 8.90522 17.28H3.28089C2.76319 17.28 2.34351 16.8805 2.34351 16.3877C2.34351 15.8949 2.76319 15.4955 3.28089 15.4955H5.15562V15.4955V11.5312C2.23558 11.1021 0 8.6994 0 5.79973C0 2.59663 2.72794 0 6.09302 0C9.45811 0 12.186 2.59663 12.186 5.79973Z" fill="#464646"/>
<path d="M16.186 0.24H20.17C21.53 0.24 22.522 0.56 23.146 1.2C23.77 1.824 24.082 2.792 24.082 4.104V4.776C24.082 5.64 23.938 6.344 23.65 6.888C23.378 7.432 22.954 7.824 22.378 8.064V8.112C23.69 8.56 24.346 9.728 24.346 11.616V13.056C24.346 14.352 24.002 15.344 23.314 16.032C22.642 16.704 21.65 17.04 20.338 17.04H16.186V0.24ZM19.858 7.08C20.386 7.08 20.778 6.944 21.034 6.672C21.306 6.4 21.442 5.944 21.442 5.304V4.368C21.442 3.76 21.33 3.32 21.106 3.048C20.898 2.776 20.562 2.64 20.098 2.64H18.826V7.08H19.858ZM20.338 14.64C20.802 14.64 21.146 14.52 21.37 14.28C21.594 14.024 21.706 13.592 21.706 12.984V11.52C21.706 10.752 21.57 10.224 21.298 9.936C21.042 9.632 20.61 9.48 20.002 9.48H18.826V14.64H20.338Z" fill="#464646"/>
<path d="M29.9692 17.28C28.6892 17.28 27.7132 16.92 27.0412 16.2C26.3692 15.464 26.0332 14.416 26.0332 13.056V0.24H28.6732V13.248C28.6732 13.824 28.7852 14.24 29.0092 14.496C29.2492 14.752 29.5852 14.88 30.0172 14.88C30.4492 14.88 30.7772 14.752 31.0012 14.496C31.2412 14.24 31.3612 13.824 31.3612 13.248V0.24H33.9052V13.056C33.9052 14.416 33.5692 15.464 32.8972 16.2C32.2252 16.92 31.2492 17.28 29.9692 17.28Z" fill="#464646"/>
<path d="M39.4574 17.28C38.1774 17.28 37.2094 16.92 36.5534 16.2C35.8974 15.464 35.5694 14.416 35.5694 13.056V12.096H38.0654V13.248C38.0654 14.336 38.5214 14.88 39.4334 14.88C39.8814 14.88 40.2174 14.752 40.4414 14.496C40.6814 14.224 40.8014 13.792 40.8014 13.2C40.8014 12.496 40.6414 11.88 40.3214 11.352C40.0014 10.808 39.4094 10.16 38.5454 9.408C37.4574 8.448 36.6974 7.584 36.2654 6.816C35.8334 6.032 35.6174 5.152 35.6174 4.176C35.6174 2.848 35.9534 1.824 36.6254 1.104C37.2974 0.368 38.2734 0 39.5534 0C40.8174 0 41.7694 0.368 42.4094 1.104C43.0654 1.824 43.3934 2.864 43.3934 4.224V4.92H40.8974V4.056C40.8974 3.48 40.7854 3.064 40.5614 2.808C40.3374 2.536 40.0094 2.4 39.5774 2.4C38.6974 2.4 38.2574 2.936 38.2574 4.008C38.2574 4.616 38.4174 5.184 38.7374 5.712C39.0734 6.24 39.6734 6.88 40.5374 7.632C41.6414 8.592 42.4014 9.464 42.8174 10.248C43.2334 11.032 43.4414 11.952 43.4414 13.008C43.4414 14.384 43.0974 15.44 42.4094 16.176C41.7374 16.912 40.7534 17.28 39.4574 17.28Z" fill="#464646"/>
<path d="M47.2591 2.64H44.4991V0.24H52.6591V2.64H49.8991V17.04H47.2591V2.64Z" fill="#464646"/>
<path d="M57.8995 17.28C56.6035 17.28 55.6115 16.912 54.9235 16.176C54.2355 15.44 53.8915 14.4 53.8915 13.056V4.224C53.8915 2.88 54.2355 1.84 54.9235 1.104C55.6115 0.368 56.6035 0 57.8995 0C59.1955 0 60.1875 0.368 60.8755 1.104C61.5635 1.84 61.9075 2.88 61.9075 4.224V13.056C61.9075 14.4 61.5635 15.44 60.8755 16.176C60.1875 16.912 59.1955 17.28 57.8995 17.28ZM57.8995 14.88C58.8115 14.88 59.2675 14.328 59.2675 13.224V4.056C59.2675 2.952 58.8115 2.4 57.8995 2.4C56.9875 2.4 56.5315 2.952 56.5315 4.056V13.224C56.5315 14.328 56.9875 14.88 57.8995 14.88Z" fill="#464646"/>
<path d="M63.9329 0.24H67.8209C69.1329 0.24 70.1169 0.592 70.7729 1.296C71.4289 2 71.7569 3.032 71.7569 4.392V6.048C71.7569 7.408 71.4289 8.44 70.7729 9.144C70.1169 9.848 69.1329 10.2 67.8209 10.2H66.5729V17.04H63.9329V0.24ZM67.8209 7.8C68.2529 7.8 68.5729 7.68 68.7809 7.44C69.0049 7.2 69.1169 6.792 69.1169 6.216V4.224C69.1169 3.648 69.0049 3.24 68.7809 3C68.5729 2.76 68.2529 2.64 67.8209 2.64H66.5729V7.8H67.8209Z" fill="#464646"/>
</svg>
