<svg width="84" height="84" viewBox="0 0 84 84" fill="none" xmlns="http://www.w3.org/2000/svg">
<circle opacity="0.3" cx="42" cy="42" r="42" fill="#4EA476"/>
<circle cx="42" cy="42" r="31.7368" fill="white" stroke="#4EA476" stroke-width="6"/>
<g clip-path="url(#clip0_258_10800)">
<path d="M56.0231 34.2632H55.5395V31.3619C55.5395 28.654 49.5435 26.5264 42.0001 26.5264C34.4566 26.5264 28.4606 28.654 28.4606 31.3619V34.2632H27.977C27.1761 34.2632 26.5264 34.9124 26.5264 35.7139V40.5494C26.5264 41.3503 27.1761 42.0001 27.977 42.0001H28.4606V51.6711C28.4606 52.7392 29.3267 53.6053 30.3948 53.6053V55.5395C30.3948 56.6076 31.261 57.4737 32.329 57.4737H34.2632C35.3313 57.4737 36.1974 56.6076 36.1974 55.5395V53.6053H47.8027V55.5395C47.8027 56.6076 48.6688 57.4737 49.7369 57.4737H51.6711C52.7392 57.4737 53.6053 56.6076 53.6053 55.5395V53.6053H53.9922C54.9593 53.6053 55.5395 52.8316 55.5395 52.0579V42.0001H56.0231C56.824 42.0001 57.4737 41.3503 57.4737 40.5494V35.7139C57.4737 34.9124 56.824 34.2632 56.0231 34.2632ZM36.1974 30.8783C36.1974 30.6112 36.4138 30.3948 36.681 30.3948H47.3191C47.5863 30.3948 47.8027 30.6112 47.8027 30.8783V31.8454C47.8027 32.1126 47.5863 32.329 47.3191 32.329H36.681C36.4138 32.329 36.1974 32.1126 36.1974 31.8454V30.8783ZM33.2961 50.704C32.2281 50.704 31.3619 49.8378 31.3619 48.7698C31.3619 47.7017 32.2281 46.8356 33.2961 46.8356C34.3642 46.8356 35.2303 47.7017 35.2303 48.7698C35.2303 49.8378 34.3642 50.704 33.2961 50.704ZM41.0329 43.9343H34.2632C33.1952 43.9343 32.329 43.0681 32.329 42.0001V36.1974C32.329 35.1294 33.1952 34.2632 34.2632 34.2632H41.0329V43.9343ZM42.9672 43.9343V34.2632H49.7369C50.8049 34.2632 51.6711 35.1294 51.6711 36.1974V42.0001C51.6711 43.0681 50.8049 43.9343 49.7369 43.9343H42.9672ZM50.704 50.704C49.636 50.704 48.7698 49.8378 48.7698 48.7698C48.7698 47.7017 49.636 46.8356 50.704 46.8356C51.772 46.8356 52.6382 47.7017 52.6382 48.7698C52.6382 49.8378 51.772 50.704 50.704 50.704Z" fill="#408560"/>
</g>
<defs>
<clipPath id="clip0_258_10800">
<rect width="30.9474" height="30.9474" fill="white" transform="translate(26.5264 26.5264)"/>
</clipPath>
</defs>
</svg>
