<svg width="38" height="38" viewBox="0 0 38 38" fill="none" xmlns="http://www.w3.org/2000/svg">
<circle opacity="0.3" cx="19" cy="19" r="19" fill="#4EA476"/>
<circle cx="19" cy="19" r="14.5" fill="white" stroke="#4EA476" stroke-width="3"/>
<path d="M25.3438 15.5H25.125V14.1875C25.125 12.9625 22.4125 12 19 12C15.5875 12 12.875 12.9625 12.875 14.1875V15.5H12.6562C12.2939 15.5 12 15.7937 12 16.1562V18.3438C12 18.7061 12.2939 19 12.6562 19H12.875V23.375C12.875 23.8582 13.2668 24.25 13.75 24.25V25.125C13.75 25.6082 14.1418 26 14.625 26H15.5C15.9832 26 16.375 25.6082 16.375 25.125V24.25H21.625V25.125C21.625 25.6082 22.0168 26 22.5 26H23.375C23.8582 26 24.25 25.6082 24.25 25.125V24.25H24.425C24.8625 24.25 25.125 23.9 25.125 23.55V19H25.3438C25.7061 19 26 18.7061 26 18.3438V16.1562C26 15.7937 25.7061 15.5 25.3438 15.5ZM16.375 13.9688C16.375 13.8479 16.4729 13.75 16.5938 13.75H21.4062C21.5271 13.75 21.625 13.8479 21.625 13.9688V14.4062C21.625 14.5271 21.5271 14.625 21.4062 14.625H16.5938C16.4729 14.625 16.375 14.5271 16.375 14.4062V13.9688ZM15.0625 22.9375C14.5793 22.9375 14.1875 22.5457 14.1875 22.0625C14.1875 21.5793 14.5793 21.1875 15.0625 21.1875C15.5457 21.1875 15.9375 21.5793 15.9375 22.0625C15.9375 22.5457 15.5457 22.9375 15.0625 22.9375ZM18.5625 19.875H15.5C15.0168 19.875 14.625 19.4832 14.625 19V16.375C14.625 15.8918 15.0168 15.5 15.5 15.5H18.5625V19.875ZM19.4375 19.875V15.5H22.5C22.9832 15.5 23.375 15.8918 23.375 16.375V19C23.375 19.4832 22.9832 19.875 22.5 19.875H19.4375ZM22.9375 22.9375C22.4543 22.9375 22.0625 22.5457 22.0625 22.0625C22.0625 21.5793 22.4543 21.1875 22.9375 21.1875C23.4207 21.1875 23.8125 21.5793 23.8125 22.0625C23.8125 22.5457 23.4207 22.9375 22.9375 22.9375Z" fill="#408560"/>
</svg>
